<svg width="18" height="19" viewBox="0 0 18 19" fill="none" xmlns="http://www.w3.org/2000/svg">
<path d="M11.875 2.375H9.5V1.1875C9.5 0.534375 8.96562 0 8.3125 0H5.9375C5.28438 0 4.75 0.534375 4.75 1.1875V2.375H2.375V4.75H11.875V2.375ZM8.3125 2.375H5.9375V1.18988C5.93869 1.18869 5.93869 1.18869 5.93987 1.1875H8.31013C8.31131 1.18869 8.31131 1.18869 8.3125 1.18988V2.375ZM14.25 5.9375V2.96875C14.25 2.64219 13.9828 2.375 13.6562 2.375H12.4688V3.5625H13.0625V5.9375H9.5L5.9375 9.5V14.25H1.1875V3.5625H1.78125V2.375H0.59375C0.267188 2.375 0 2.64219 0 2.96875V14.8438C0 15.1703 0.267188 15.4375 0.59375 15.4375H5.9375V19H17.8125V5.9375H14.25ZM9.5 7.61662V9.5H7.61662L9.5 7.61662ZM16.625 17.8125H7.125V10.6875H10.6875V7.125H16.625V17.8125Z" fill="#3B4D4F"/>
</svg>
