<svg width="24" height="24" viewBox="0 0 24 24" fill="none" xmlns="http://www.w3.org/2000/svg">
<path d="M22.08 14.3052L15.4741 20.911L13.2722 18.7091L11.8042 20.177L15.4741 23.847L23.548 15.7731L22.08 14.3052Z" fill="#3B4D4F"/>
<path d="M10.3363 17.9751H17.6762V15.3342C16.1348 14.4343 14.0914 13.8178 11.8043 13.6314V12.4203C13.422 11.5087 14.7403 9.23772 14.7403 6.9653C14.7403 3.31739 14.7403 0.359428 10.3363 0.359428C5.93243 0.359428 5.93243 3.31739 5.93243 6.9653C5.93243 9.23772 7.25067 11.5087 8.86838 12.4203V13.6314C3.88902 14.038 0.0605469 16.4851 0.0605469 19.4431H10.3363V17.9751Z" fill="#3B4D4F"/>
</svg>
