<svg width="16" height="12" viewBox="0 0 16 12" fill="none" xmlns="http://www.w3.org/2000/svg">
<path d="M0 10V4.24271C0 4.1312 0.117347 4.05867 0.217082 4.10854L6.65836 7.32918C7.50294 7.75147 8.49706 7.75147 9.34164 7.32918L15.7829 4.10854C15.8827 4.05867 16 4.1312 16 4.24271V10C16 11.1046 15.1046 12 14 12H2C0.895431 12 0 11.1046 0 10Z" fill="white"/>
<path d="M0 2V2.90729C0 2.96411 0.0321003 3.01605 0.082918 3.04146L6.65836 6.32918C7.50294 6.75147 8.49706 6.75147 9.34164 6.32918L15.9171 3.04146C15.9679 3.01605 16 2.96411 16 2.9073V2C16 0.895431 15.1046 0 14 0H2C0.895431 0 0 0.895431 0 2Z" fill="white"/>
</svg>
