<svg width="15" height="15" viewBox="0 0 15 15" fill="none" xmlns="http://www.w3.org/2000/svg">
<path d="M14.8631 12.0506L10.3125 7.5L14.8631 2.94941C14.9118 2.90066 14.9474 2.84347 14.9699 2.78254C15.0318 2.61566 14.9962 2.42067 14.8631 2.2866L12.7134 0.136934C12.5793 0.00287273 12.3843 -0.032752 12.2175 0.03006C12.1565 0.0525598 12.0993 0.0881846 12.0506 0.136934L7.5 4.68752L2.94941 0.136934C2.90066 0.0881846 2.84347 0.0525598 2.78254 0.03006C2.61566 -0.0318145 2.42067 0.00287273 2.2866 0.136934L0.136934 2.2866C0.00287273 2.42067 -0.032752 2.61566 0.03006 2.78254C0.0525598 2.84347 0.0881846 2.90066 0.136934 2.94941L4.68752 7.5L0.136934 12.0506C0.0881846 12.0993 0.0525598 12.1565 0.03006 12.2175C-0.0318145 12.3843 0.00287273 12.5793 0.136934 12.7134L2.2866 14.8631C2.42067 14.9971 2.61566 15.0328 2.78254 14.9699C2.84347 14.9474 2.90066 14.9118 2.94941 14.8631L7.5 10.3125L12.0506 14.8631C12.0993 14.9118 12.1565 14.9474 12.2175 14.9699C12.3843 15.0318 12.5793 14.9971 12.7134 14.8631L14.8631 12.7134C14.9971 12.5793 15.0328 12.3843 14.9699 12.2175C14.9474 12.1565 14.9118 12.0993 14.8631 12.0506Z" fill="white"/>
</svg>
