<svg width="19" height="19" viewBox="0 0 19 19" fill="none" xmlns="http://www.w3.org/2000/svg">
<path d="M9.5 15.4375C10.1555 15.4375 10.6875 15.9695 10.6875 16.625V17.8125C10.6875 18.468 10.1555 19 9.5 19C8.8445 19 8.3125 18.468 8.3125 17.8125V16.625C8.3125 15.9695 8.8445 15.4375 9.5 15.4375ZM9.5 3.5625C8.8445 3.5625 8.3125 3.0305 8.3125 2.375V1.1875C8.3125 0.532 8.8445 0 9.5 0C10.1555 0 10.6875 0.532 10.6875 1.1875V2.375C10.6875 3.0305 10.1555 3.5625 9.5 3.5625ZM17.8125 8.3125C18.468 8.3125 19 8.8445 19 9.5C19 10.1555 18.468 10.6875 17.8125 10.6875H16.625C15.9695 10.6875 15.4375 10.1555 15.4375 9.5C15.4375 8.8445 15.9695 8.3125 16.625 8.3125H17.8125ZM3.5625 9.5C3.5625 10.1555 3.0305 10.6875 2.375 10.6875H1.1875C0.532 10.6875 0 10.1555 0 9.5C0 8.8445 0.532 8.3125 1.1875 8.3125H2.375C3.0305 8.3125 3.5625 8.8445 3.5625 9.5ZM15.3781 13.699L16.2177 14.5386C16.6808 15.0017 16.6808 15.7546 16.2177 16.2177C15.7546 16.6808 15.0017 16.6808 14.5386 16.2177L13.699 15.3781C13.2359 14.915 13.2359 14.1621 13.699 13.699C14.1621 13.2359 14.915 13.2359 15.3781 13.699ZM3.62188 5.301L2.78231 4.46144C2.318 3.99712 2.318 3.24544 2.78231 2.78231C3.24662 2.31919 3.99831 2.318 4.46144 2.78231L5.301 3.62188C5.76531 4.08619 5.76531 4.83788 5.301 5.301C4.83669 5.76413 4.085 5.76531 3.62188 5.301ZM15.3781 5.301C14.915 5.76531 14.1621 5.76531 13.699 5.301C13.2359 4.83669 13.2359 4.085 13.699 3.62188L14.5386 2.78231C15.0017 2.318 15.7546 2.318 16.2177 2.78231C16.6808 3.24662 16.6808 3.99831 16.2177 4.46144L15.3781 5.301ZM3.62188 13.699C4.085 13.2359 4.83788 13.2359 5.301 13.699C5.76413 14.1621 5.76531 14.915 5.301 15.3781L4.46144 16.2177C3.99712 16.6808 3.24544 16.6808 2.78231 16.2177C2.31919 15.7546 2.318 15.0017 2.78231 14.5386L3.62188 13.699Z" fill="#3B4D4F"/>
<path d="M9.5 4.75C6.87681 4.75 4.75 6.87681 4.75 9.5C4.75 12.1232 6.87681 14.25 9.5 14.25C12.1232 14.25 14.25 12.1232 14.25 9.5C14.25 6.87681 12.1232 4.75 9.5 4.75ZM9.5 12.4688C7.86006 12.4688 6.53125 11.1399 6.53125 9.5C6.53125 7.86006 7.86006 6.53125 9.5 6.53125C11.1399 6.53125 12.4688 7.86006 12.4688 9.5C12.4688 11.1399 11.1399 12.4688 9.5 12.4688Z" fill="#3B4D4F"/>
</svg>
