<svg width="10" height="14" viewBox="0 0 10 14" fill="none" xmlns="http://www.w3.org/2000/svg">
<path d="M2.5 4.52959C2.5 3.73805 1.44722 3.52825 1.16791 4.26887C0.492283 6.06039 0 7.66304 0 8.52951C0 11.2909 2.23858 13.5295 5 13.5295C7.76142 13.5295 10 11.2909 10 8.52951C10 7.5986 9.43178 5.81796 8.67844 3.86628C7.70257 1.33809 7.21464 0.0739882 6.61233 0.00590088C6.4196 -0.0158859 6.20934 0.0232845 6.03739 0.113011C5.5 0.393423 5.5 1.77214 5.5 4.52959C5.5 5.35801 4.82843 6.02959 4 6.02959C3.17157 6.02959 2.5 5.35801 2.5 4.52959Z" fill="#3B4D4F"/>
</svg>
