<svg width="16" height="18" viewBox="0 0 16 18" fill="none" xmlns="http://www.w3.org/2000/svg">
<path fill-rule="evenodd" clip-rule="evenodd" d="M8.39804 16.804C9.88097 16.0348 15 13.0163 15 8C15 4.13401 11.866 1 8 1C4.13401 1 1 4.13401 1 8C1 13.0163 6.11903 16.0348 7.60196 16.804C7.85483 16.9351 8.14517 16.9351 8.39804 16.804ZM8 11C9.65685 11 11 9.65685 11 8C11 6.34315 9.65685 5 8 5C6.34315 5 5 6.34315 5 8C5 9.65685 6.34315 11 8 11Z" fill="white"/>
<path d="M8.39804 16.804L8.6743 17.3366V17.3366L8.39804 16.804ZM7.60196 16.804L7.3257 17.3366L7.3257 17.3366L7.60196 16.804ZM14.4 8C14.4 10.2907 13.2328 12.1563 11.829 13.5722C10.4258 14.9876 8.83632 15.9007 8.12178 16.2713L8.6743 17.3366C9.44269 16.938 11.1542 15.9573 12.6812 14.4171C14.2077 12.8774 15.6 10.7256 15.6 8H14.4ZM8 1.6C11.5346 1.6 14.4 4.46538 14.4 8H15.6C15.6 3.80264 12.1974 0.4 8 0.4V1.6ZM1.6 8C1.6 4.46538 4.46538 1.6 8 1.6V0.4C3.80264 0.4 0.4 3.80264 0.4 8H1.6ZM7.87822 16.2713C7.16368 15.9007 5.57422 14.9876 4.17097 13.5722C2.76717 12.1563 1.6 10.2907 1.6 8H0.4C0.4 10.7256 1.79235 12.8774 3.31879 14.4171C4.8458 15.9573 6.55731 16.938 7.3257 17.3366L7.87822 16.2713ZM8.12178 16.2713C8.04213 16.3127 7.95787 16.3127 7.87822 16.2713L7.3257 17.3366C7.75178 17.5576 8.24822 17.5576 8.6743 17.3366L8.12178 16.2713ZM10.4 8C10.4 9.32548 9.32548 10.4 8 10.4V11.6C9.98823 11.6 11.6 9.98823 11.6 8H10.4ZM8 5.6C9.32548 5.6 10.4 6.67452 10.4 8H11.6C11.6 6.01178 9.98823 4.4 8 4.4V5.6ZM5.6 8C5.6 6.67452 6.67452 5.6 8 5.6V4.4C6.01178 4.4 4.4 6.01178 4.4 8H5.6ZM8 10.4C6.67452 10.4 5.6 9.32548 5.6 8H4.4C4.4 9.98823 6.01178 11.6 8 11.6V10.4Z" fill="white"/>
</svg>
