<svg width="16" height="16" viewBox="0 0 16 16" fill="none" xmlns="http://www.w3.org/2000/svg">
<path d="M10.3333 10.3333V9.33333H9.33333V10.3333H10.3333ZM14.2929 15.7071C14.6834 16.0976 15.3166 16.0976 15.7071 15.7071C16.0976 15.3166 16.0976 14.6834 15.7071 14.2929L14.2929 15.7071ZM10.3333 5.66667H9.33333V6.66667H10.3333V5.66667ZM15.7071 1.70711C16.0976 1.31658 16.0976 0.683417 15.7071 0.292893C15.3166 -0.0976311 14.6834 -0.0976311 14.2929 0.292893L15.7071 1.70711ZM5.66667 10.3333H6.66667V9.33333H5.66667V10.3333ZM0.292893 14.2929C-0.0976311 14.6834 -0.0976311 15.3166 0.292893 15.7071C0.683417 16.0976 1.31658 16.0976 1.70711 15.7071L0.292893 14.2929ZM5.66667 5.66667V6.66667H6.66667V5.66667H5.66667ZM1.70711 0.292893C1.31658 -0.0976311 0.683417 -0.0976311 0.292893 0.292893C-0.0976311 0.683417 -0.0976311 1.31658 0.292893 1.70711L1.70711 0.292893ZM11.3333 14.2222V10.3333H9.33333V14.2222H11.3333ZM10.3333 11.3333H14.2222V9.33333H10.3333V11.3333ZM9.62623 11.0404L14.2929 15.7071L15.7071 14.2929L11.0404 9.62623L9.62623 11.0404ZM9.33333 1.77778V5.66667H11.3333V1.77778H9.33333ZM10.3333 6.66667H14.2222V4.66667H10.3333V6.66667ZM11.0404 6.37377L15.7071 1.70711L14.2929 0.292893L9.62623 4.95956L11.0404 6.37377ZM6.66667 14.2222V10.3333H4.66667V14.2222H6.66667ZM5.66667 9.33333H1.77778V11.3333H5.66667V9.33333ZM4.95956 9.62623L0.292893 14.2929L1.70711 15.7071L6.37377 11.0404L4.95956 9.62623ZM4.66667 1.77778V5.66667H6.66667V1.77778H4.66667ZM5.66667 4.66667H1.77778V6.66667H5.66667V4.66667ZM6.37377 4.95956L1.70711 0.292893L0.292893 1.70711L4.95956 6.37377L6.37377 4.95956Z" fill="#3B4D4F"/>
</svg>
