<svg width="24" height="18" viewBox="0 0 24 18" fill="none" xmlns="http://www.w3.org/2000/svg">
<path d="M21.75 0H2.25C1.0125 0 0 1.0125 0 2.25V15.75C0 16.9875 1.0125 18 2.25 18H21.75C22.9875 18 24 16.9875 24 15.75V2.25C24 1.0125 22.9875 0 21.75 0ZM2.25 1.5H21.75C22.1565 1.5 22.5 1.8435 22.5 2.25V4.5H1.5V2.25C1.5 1.8435 1.8435 1.5 2.25 1.5ZM21.75 16.5H2.25C1.8435 16.5 1.5 16.1565 1.5 15.75V9H22.5V15.75C22.5 16.1565 22.1565 16.5 21.75 16.5ZM3 12H4.5V15H3V12ZM6 12H7.5V15H6V12ZM9 12H10.5V15H9V12Z" fill="#3B4D4F"/>
</svg>
