<svg width="20" height="19" viewBox="0 0 20 19" fill="none" xmlns="http://www.w3.org/2000/svg">
<path d="M3.57517 9.46305C3.57517 9.23654 3.58828 9.01242 3.61331 8.79188L0.168089 7.67248C0.0584139 8.25304 0 8.85149 0 9.46305C0 12.2049 1.15755 14.6774 3.01129 16.4167L5.14042 13.4864C4.17003 12.4267 3.57636 11.014 3.57636 9.46305H3.57517ZM15.4964 9.46305C15.4964 11.014 14.9039 12.4267 13.9323 13.4864L16.0614 16.4167C17.9152 14.6774 19.0727 12.2049 19.0727 9.46305C19.0727 8.85149 19.0143 8.25304 18.9046 7.67248L15.4594 8.79188C15.4844 9.01242 15.4976 9.23654 15.4976 9.46305H15.4964ZM10.7279 3.62166C12.4398 3.96976 13.8858 5.05101 14.7227 6.52447L18.1679 5.40507C16.8041 2.5106 14.0277 0.412473 10.7279 0V3.62166ZM4.34885 6.52447C5.18572 5.05101 6.63057 3.96976 8.34364 3.62166V0C5.04267 0.411281 2.26741 2.50941 0.903627 5.40507L4.34885 6.52447ZM12.0046 14.8896C11.2524 15.2329 10.4167 15.4236 9.53576 15.4236C8.65479 15.4236 7.81911 15.2329 7.06688 14.8896L4.93776 17.8198C6.30154 18.572 7.86799 19 9.53576 19C11.2035 19 12.77 18.572 14.1338 17.8198L12.0046 14.8896Z" fill="#3B4D4F"/>
</svg>
