<svg width="16" height="19" viewBox="0 0 16 19" fill="none" xmlns="http://www.w3.org/2000/svg">
<path d="M8.3125 3.58506V2.375H10.6875V1.1875C10.6875 0.532 10.1555 0 9.5 0H5.9375C5.282 0 4.75 0.532 4.75 1.1875V2.375H7.125V3.58506C3.13975 3.88788 0 7.21763 0 11.2812C0 15.5444 3.45563 19 7.71875 19C11.9819 19 15.4375 15.5444 15.4375 11.2812C15.4375 7.21763 12.2977 3.88788 8.3125 3.58506ZM11.9178 15.4803C10.7968 16.6012 9.30525 17.2188 7.71875 17.2188C6.13225 17.2188 4.64194 16.6012 3.51975 15.4803C2.39875 14.3593 1.78125 12.8678 1.78125 11.2812C1.78125 9.69475 2.39875 8.20444 3.51975 7.08225C4.59681 6.00519 6.01469 5.39362 7.52994 5.34612L7.12737 11.1732C7.09294 11.6613 7.35894 11.875 7.71756 11.875C8.07619 11.875 8.34338 11.6613 8.30775 11.1732L7.90519 5.34612C9.42044 5.39362 10.8383 6.00519 11.9154 7.08225C13.0364 8.20325 13.6539 9.69475 13.6539 11.2812C13.6539 12.8678 13.0364 14.3581 11.9154 15.4803H11.9178Z" fill="#3B4D4F"/>
</svg>
