<svg width="28" height="15" viewBox="0 0 28 15" fill="none" xmlns="http://www.w3.org/2000/svg">
<path fill-rule="evenodd" clip-rule="evenodd" d="M23.8832 9.52311C24.7972 10.381 25.7712 11.1879 26.5954 12.1326C26.9699 12.5405 27.2967 12.9897 27.5694 13.4715C27.6657 13.6026 27.7268 13.7561 27.7466 13.9175C27.7665 14.0789 27.7445 14.2428 27.6828 14.3932C27.6211 14.5437 27.5218 14.6757 27.3944 14.7767C27.2669 14.8778 27.1157 14.9443 26.9551 14.97H22.9167C22.4399 15.0065 21.9609 14.9358 21.515 14.7631C21.069 14.5904 20.6673 14.3201 20.3393 13.972C19.7774 13.4273 19.2604 12.8482 18.721 12.2862C18.5072 12.0492 18.2628 11.8416 17.9943 11.6689C17.8921 11.5826 17.7712 11.5213 17.6411 11.49C17.5111 11.4586 17.3756 11.4582 17.2453 11.4885C17.115 11.5188 16.9936 11.5792 16.8908 11.6648C16.788 11.7503 16.7067 11.8587 16.6532 11.9813C16.3676 12.5374 16.221 13.1544 16.2261 13.7794C16.1811 14.6883 15.8965 14.9273 14.9375 14.9692C12.9364 15.1209 10.9328 14.7096 9.15345 13.7817C7.62761 12.9084 6.30267 11.7236 5.26491 10.3045C3.24338 7.5963 1.5249 4.67462 0.14023 1.5918C-0.181938 0.904006 0.0502787 0.536134 0.844459 0.522648C2.1631 0.499422 3.48177 0.499422 4.8079 0.522648C5.04913 0.523102 5.2842 0.598864 5.4803 0.739358C5.6764 0.879852 5.82372 1.07808 5.90174 1.30635C6.60571 2.98767 7.5061 4.57984 8.58403 6.0497C8.85636 6.46034 9.1987 6.81991 9.59547 7.11208C9.67401 7.19003 9.7718 7.24577 9.87889 7.27364C9.98599 7.30152 10.0985 7.30053 10.2051 7.27076C10.3117 7.241 10.4085 7.18355 10.4856 7.10422C10.5628 7.02489 10.6176 6.92651 10.6444 6.81914C10.7771 6.50285 10.8555 6.1665 10.8766 5.82417C11.0003 4.66363 10.9777 3.49216 10.8092 2.33727C10.7768 2.00119 10.6307 1.68621 10.395 1.44441C10.1593 1.20261 9.8482 1.04845 9.51306 1.00738C9.13096 0.937699 9.18335 0.799853 9.37066 0.589321C9.51511 0.398188 9.70374 0.244875 9.92033 0.142455C10.1369 0.0400362 10.375 -0.00842469 10.6144 0.001198H15.1847C15.3234 0.0106519 15.4589 0.0475925 15.5832 0.109896C15.7076 0.1722 15.8183 0.258617 15.9089 0.364105C15.9996 0.469592 16.0684 0.592053 16.1112 0.724359C16.1541 0.856665 16.1702 0.99618 16.1587 1.13478V5.9785C16.1483 6.22306 16.2024 6.46606 16.3155 6.68314C16.4285 6.90023 16.5967 7.08379 16.803 7.21548C16.9804 7.24222 17.1617 7.21604 17.3243 7.14021C17.4869 7.06438 17.6235 6.94229 17.7171 6.78919C18.7618 5.66889 19.6308 4.39674 20.2944 3.01608C20.6016 2.42044 20.8638 1.80081 21.1261 1.1827C21.194 0.968171 21.3341 0.783766 21.5225 0.660841C21.711 0.537917 21.9363 0.484084 22.16 0.508426H26.5505C26.6808 0.505105 26.8111 0.51288 26.9401 0.531656C27.6818 0.651533 27.8841 0.95645 27.6593 1.64649C27.2385 2.70109 26.6461 3.67879 25.9061 4.54C25.1794 5.508 24.3927 6.44226 23.666 7.41701C22.9992 8.30634 23.0515 8.75441 23.8832 9.52686V9.52311Z" fill="white"/>
</svg>
