<svg width="15" height="15" viewBox="0 0 15 15" fill="none" xmlns="http://www.w3.org/2000/svg">
<path fill-rule="evenodd" clip-rule="evenodd" d="M10.8844 8.98876C10.6981 8.89564 9.78498 8.44689 9.61498 8.38439C9.44498 8.32251 9.32123 8.29189 9.19686 8.47814C9.07311 8.66314 8.71748 9.08189 8.60936 9.20564C8.50061 9.33001 8.39249 9.34501 8.20686 9.25251C8.02124 9.15876 7.42249 8.96314 6.71311 8.33064C6.16124 7.83814 5.78812 7.23001 5.67999 7.04376C5.57187 6.85814 5.66812 6.75751 5.76124 6.66501C5.84499 6.58189 5.94686 6.44814 6.03999 6.34002C6.13311 6.23127 6.16374 6.15377 6.22561 6.02939C6.28811 5.90564 6.25686 5.79752 6.20999 5.70439C6.16374 5.61127 5.79249 4.69689 5.63749 4.32502C5.48687 3.96314 5.33374 4.01252 5.21999 4.00627C5.11124 4.00127 4.98749 4.00002 4.86374 4.00002C4.73999 4.00002 4.53874 4.04627 4.36874 4.23252C4.19812 4.41814 3.71874 4.86752 3.71874 5.78189C3.71874 6.69564 4.38374 7.57876 4.47687 7.70314C4.56999 7.82689 5.78624 9.70313 7.64936 10.5075C8.09311 10.6988 8.43874 10.8131 8.70811 10.8981C9.15311 11.04 9.55811 11.02 9.87811 10.9719C10.2344 10.9188 10.9769 10.5225 11.1319 10.0888C11.2862 9.65501 11.2862 9.28314 11.24 9.20564C11.1937 9.12814 11.07 9.08189 10.8837 8.98876H10.8844ZM7.49561 13.6156H7.49311C6.38651 13.6158 5.30022 13.3184 4.34812 12.7544L4.12312 12.6206L1.78437 13.2344L2.40875 10.9544L2.26187 10.7206C1.64321 9.73585 1.31581 8.59612 1.3175 7.43314C1.31875 4.02689 4.08999 1.25565 7.49811 1.25565C9.14811 1.25565 10.6994 1.8994 11.8656 3.0669C12.4408 3.63976 12.8968 4.321 13.207 5.0712C13.5173 5.82141 13.6757 6.62569 13.6731 7.43751C13.6719 10.8438 10.9006 13.6156 7.49561 13.6156ZM12.7531 2.18002C12.0645 1.48685 11.2451 0.937235 10.3425 0.563025C9.43995 0.188815 8.47207 -0.00254765 7.49499 2.56109e-05C3.39874 2.56109e-05 0.0637499 3.3344 0.0624999 7.43251C0.0618749 8.74251 0.403749 10.0213 1.05437 11.1481L0 15L3.93999 13.9663C5.02991 14.5601 6.2513 14.8712 7.49249 14.8713H7.49561C11.5919 14.8713 14.9268 11.5369 14.9281 7.43814C14.9311 6.46144 14.7404 5.49383 14.3671 4.59129C13.9938 3.68875 13.4452 2.86919 12.7531 2.18002Z" fill="white"/>
</svg>
